<?xml version="1.0" encoding="utf-8" standalone="no"?>
<!DOCTYPE svg PUBLIC "-//W3C//DTD SVG 1.1//EN"
  "http://www.w3.org/Graphics/SVG/1.1/DTD/svg11.dtd">
<svg xmlns:xlink="http://www.w3.org/1999/xlink" width="864pt" height="864pt" viewBox="0 0 864 864" xmlns="http://www.w3.org/2000/svg" version="1.1">
 <metadata>
  <rdf:RDF xmlns:dc="http://purl.org/dc/elements/1.1/" xmlns:cc="http://creativecommons.org/ns#" xmlns:rdf="http://www.w3.org/1999/02/22-rdf-syntax-ns#">
   <cc:Work>
    <dc:type rdf:resource="http://purl.org/dc/dcmitype/StillImage"/>
    <dc:date>2023-02-18T22:54:08.401596</dc:date>
    <dc:format>image/svg+xml</dc:format>
    <dc:creator>
     <cc:Agent>
      <dc:title>Matplotlib v3.6.3, https://matplotlib.org/</dc:title>
     </cc:Agent>
    </dc:creator>
   </cc:Work>
  </rdf:RDF>
 </metadata>
 <defs>
  <style type="text/css">*{stroke-linejoin: round; stroke-linecap: butt}</style>
 </defs>
 <g id="figure_1">
  <g id="patch_1">
   <path d="M 0 864 
L 864 864 
L 864 0 
L 0 0 
L 0 864 
z
" style="fill: none"/>
  </g>
  <g id="axes_1">
   <g id="patch_2">
    <path d="M 108 393.6 
L 392.93617 393.6 
L 392.93617 103.68 
L 108 103.68 
z
" style="fill: #ffffff"/>
   </g>
   <g id="matplotlib.axis_1">
    <g id="xtick_1">
     <g id="line2d_1">
      <path d="M 131.744681 393.6 
L 131.744681 103.68 
" clip-path="url(#pa26acf5109)" style="fill: none; stroke-dasharray: 0.8,1.32; stroke-dashoffset: 0; stroke: #b0b0b0; stroke-width: 0.8"/>
     </g>
     <g id="line2d_2">
      <defs>
       <path id="md36b369c47" d="M 0 0 
L 0 3.5 
" style="stroke: #000000; stroke-width: 0.8"/>
      </defs>
      <g>
       <use xlink:href="#md36b369c47" x="131.744681" y="393.6" style="stroke: #000000; stroke-width: 0.8"/>
      </g>
     </g>
     <g id="text_1">
      <!-- 0.0 -->
      <g transform="translate(119.817337 411.997656) scale(0.15 -0.15)">
       <defs>
        <path id="DejaVuSans-30" d="M 2034 4250 
Q 1547 4250 1301 3770 
Q 1056 3291 1056 2328 
Q 1056 1369 1301 889 
Q 1547 409 2034 409 
Q 2525 409 2770 889 
Q 3016 1369 3016 2328 
Q 3016 3291 2770 3770 
Q 2525 4250 2034 4250 
z
M 2034 4750 
Q 2819 4750 3233 4129 
Q 3647 3509 3647 2328 
Q 3647 1150 3233 529 
Q 2819 -91 2034 -91 
Q 1250 -91 836 529 
Q 422 1150 422 2328 
Q 422 3509 836 4129 
Q 1250 4750 2034 4750 
z
" transform="scale(0.015625)"/>
        <path id="DejaVuSans-2e" d="M 684 794 
L 1344 794 
L 1344 0 
L 684 0 
L 684 794 
z
" transform="scale(0.015625)"/>
       </defs>
       <use xlink:href="#DejaVuSans-30"/>
       <use xlink:href="#DejaVuSans-2e" x="63.623047"/>
       <use xlink:href="#DejaVuSans-30" x="95.410156"/>
      </g>
     </g>
    </g>
    <g id="xtick_2">
     <g id="line2d_3">
      <path d="M 250.468085 393.6 
L 250.468085 103.68 
" clip-path="url(#pa26acf5109)" style="fill: none; stroke-dasharray: 0.8,1.32; stroke-dashoffset: 0; stroke: #b0b0b0; stroke-width: 0.8"/>
     </g>
     <g id="line2d_4">
      <g>
       <use xlink:href="#md36b369c47" x="250.468085" y="393.6" style="stroke: #000000; stroke-width: 0.8"/>
      </g>
     </g>
     <g id="text_2">
      <!-- 0.5 -->
      <g transform="translate(238.540741 411.997656) scale(0.15 -0.15)">
       <defs>
        <path id="DejaVuSans-35" d="M 691 4666 
L 3169 4666 
L 3169 4134 
L 1269 4134 
L 1269 2991 
Q 1406 3038 1543 3061 
Q 1681 3084 1819 3084 
Q 2600 3084 3056 2656 
Q 3513 2228 3513 1497 
Q 3513 744 3044 326 
Q 2575 -91 1722 -91 
Q 1428 -91 1123 -41 
Q 819 9 494 109 
L 494 744 
Q 775 591 1075 516 
Q 1375 441 1709 441 
Q 2250 441 2565 725 
Q 2881 1009 2881 1497 
Q 2881 1984 2565 2268 
Q 2250 2553 1709 2553 
Q 1456 2553 1204 2497 
Q 953 2441 691 2322 
L 691 4666 
z
" transform="scale(0.015625)"/>
       </defs>
       <use xlink:href="#DejaVuSans-30"/>
       <use xlink:href="#DejaVuSans-2e" x="63.623047"/>
       <use xlink:href="#DejaVuSans-35" x="95.410156"/>
      </g>
     </g>
    </g>
    <g id="xtick_3">
     <g id="line2d_5">
      <path d="M 369.191489 393.6 
L 369.191489 103.68 
" clip-path="url(#pa26acf5109)" style="fill: none; stroke-dasharray: 0.8,1.32; stroke-dashoffset: 0; stroke: #b0b0b0; stroke-width: 0.8"/>
     </g>
     <g id="line2d_6">
      <g>
       <use xlink:href="#md36b369c47" x="369.191489" y="393.6" style="stroke: #000000; stroke-width: 0.8"/>
      </g>
     </g>
     <g id="text_3">
      <!-- 1.0 -->
      <g transform="translate(357.264146 411.997656) scale(0.15 -0.15)">
       <defs>
        <path id="DejaVuSans-31" d="M 794 531 
L 1825 531 
L 1825 4091 
L 703 3866 
L 703 4441 
L 1819 4666 
L 2450 4666 
L 2450 531 
L 3481 531 
L 3481 0 
L 794 0 
L 794 531 
z
" transform="scale(0.015625)"/>
       </defs>
       <use xlink:href="#DejaVuSans-31"/>
       <use xlink:href="#DejaVuSans-2e" x="63.623047"/>
       <use xlink:href="#DejaVuSans-30" x="95.410156"/>
      </g>
     </g>
    </g>
   </g>
   <g id="matplotlib.axis_2">
    <g id="ytick_1">
     <g id="line2d_7">
      <path d="M 108 369.44 
L 392.93617 369.44 
" clip-path="url(#pa26acf5109)" style="fill: none; stroke-dasharray: 0.8,1.32; stroke-dashoffset: 0; stroke: #b0b0b0; stroke-width: 0.8"/>
     </g>
     <g id="line2d_8">
      <defs>
       <path id="ma5bf11d7fd" d="M 0 0 
L -3.5 0 
" style="stroke: #000000; stroke-width: 0.8"/>
      </defs>
      <g>
       <use xlink:href="#ma5bf11d7fd" x="108" y="369.44" style="stroke: #000000; stroke-width: 0.8"/>
      </g>
     </g>
     <g id="text_4">
      <!-- 0.0 -->
      <g transform="translate(77.145313 375.138828) scale(0.15 -0.15)">
       <use xlink:href="#DejaVuSans-30"/>
       <use xlink:href="#DejaVuSans-2e" x="63.623047"/>
       <use xlink:href="#DejaVuSans-30" x="95.410156"/>
      </g>
     </g>
    </g>
    <g id="ytick_2">
     <g id="line2d_9">
      <path d="M 108 248.64 
L 392.93617 248.64 
" clip-path="url(#pa26acf5109)" style="fill: none; stroke-dasharray: 0.8,1.32; stroke-dashoffset: 0; stroke: #b0b0b0; stroke-width: 0.8"/>
     </g>
     <g id="line2d_10">
      <g>
       <use xlink:href="#ma5bf11d7fd" x="108" y="248.64" style="stroke: #000000; stroke-width: 0.8"/>
      </g>
     </g>
     <g id="text_5">
      <!-- 0.5 -->
      <g transform="translate(77.145313 254.338828) scale(0.15 -0.15)">
       <use xlink:href="#DejaVuSans-30"/>
       <use xlink:href="#DejaVuSans-2e" x="63.623047"/>
       <use xlink:href="#DejaVuSans-35" x="95.410156"/>
      </g>
     </g>
    </g>
    <g id="ytick_3">
     <g id="line2d_11">
      <path d="M 108 127.84 
L 392.93617 127.84 
" clip-path="url(#pa26acf5109)" style="fill: none; stroke-dasharray: 0.8,1.32; stroke-dashoffset: 0; stroke: #b0b0b0; stroke-width: 0.8"/>
     </g>
     <g id="line2d_12">
      <g>
       <use xlink:href="#ma5bf11d7fd" x="108" y="127.84" style="stroke: #000000; stroke-width: 0.8"/>
      </g>
     </g>
     <g id="text_6">
      <!-- 1.0 -->
      <g transform="translate(77.145313 133.538828) scale(0.15 -0.15)">
       <use xlink:href="#DejaVuSans-31"/>
       <use xlink:href="#DejaVuSans-2e" x="63.623047"/>
       <use xlink:href="#DejaVuSans-30" x="95.410156"/>
      </g>
     </g>
    </g>
   </g>
   <g id="line2d_13">
    <path d="M 131.744681 369.44 
L 359.645889 369.371297 
L 360.839089 369.245787 
L 362.032289 368.893941 
L 363.225489 367.91286 
L 364.418689 365.191629 
L 365.611889 357.683097 
L 366.805089 337.072159 
L 367.998289 280.784112 
L 369.191489 127.84 
L 369.191489 127.84 
" clip-path="url(#pa26acf5109)" style="fill: none; stroke: #1f77b4; stroke-width: 1.5; stroke-linecap: square"/>
   </g>
   <g id="line2d_14">
    <path d="M 131.744681 369.44 
L 258.223885 369.337824 
L 271.349086 369.094696 
L 279.701486 368.732961 
L 285.667486 368.288717 
L 290.440287 367.762178 
L 295.213087 367.021965 
L 298.792687 366.281448 
L 302.372287 365.337454 
L 305.951887 364.140183 
L 309.531487 362.629072 
L 311.917887 361.41168 
L 314.304287 359.997145 
L 316.690687 358.356764 
L 319.077088 356.458107 
L 321.463488 354.264599 
L 323.849888 351.735046 
L 326.236288 348.823128 
L 328.622688 345.476828 
L 331.009088 341.637823 
L 333.395488 337.240805 
L 335.781888 332.212745 
L 338.168288 326.472087 
L 340.554688 319.927873 
L 342.941088 312.478781 
L 345.327489 304.012092 
L 347.713889 294.402548 
L 350.100289 283.511131 
L 352.486689 271.183723 
L 354.873089 257.249659 
L 357.259489 241.520161 
L 359.645889 223.786637 
L 362.032289 203.818849 
L 364.418689 181.362925 
L 366.805089 156.13922 
L 369.191489 127.84 
L 369.191489 127.84 
" clip-path="url(#pa26acf5109)" style="fill: none; stroke: #ff7f0e; stroke-width: 1.5; stroke-linecap: square"/>
   </g>
   <g id="line2d_15">
    <path d="M 131.744681 369.44 
L 149.642681 369.336531 
L 159.188282 369.066989 
L 167.540682 368.612246 
L 174.699882 368.009641 
L 181.859083 367.168642 
L 187.825083 366.257039 
L 193.791083 365.129301 
L 199.757083 363.762433 
L 205.723084 362.133443 
L 210.495884 360.626072 
L 215.268684 358.924454 
L 220.041484 357.016818 
L 224.814284 354.89139 
L 229.587084 352.536398 
L 234.359885 349.94007 
L 239.132685 347.090633 
L 243.905485 343.976315 
L 248.678285 340.585342 
L 253.451085 336.905944 
L 258.223885 332.926346 
L 262.996686 328.634777 
L 267.769486 324.019464 
L 272.542286 319.068635 
L 277.315086 313.770516 
L 282.087886 308.113337 
L 286.860686 302.085323 
L 291.633487 295.674703 
L 296.406287 288.869704 
L 301.179087 281.658553 
L 305.951887 274.029479 
L 310.724687 265.970708 
L 315.497487 257.470468 
L 320.270288 248.516987 
L 325.043088 239.098491 
L 329.815888 229.203209 
L 334.588688 218.819368 
L 339.361488 207.935196 
L 344.134288 196.538919 
L 348.907089 184.618766 
L 353.679889 172.162964 
L 358.452689 159.159741 
L 363.225489 145.597323 
L 367.998289 131.463939 
L 369.191489 127.84 
L 369.191489 127.84 
" clip-path="url(#pa26acf5109)" style="fill: none; stroke: #2ca02c; stroke-width: 1.5; stroke-linecap: square"/>
   </g>
   <g id="line2d_16">
    <path d="M 131.744681 369.44 
L 369.191489 127.84 
L 369.191489 127.84 
" clip-path="url(#pa26acf5109)" style="fill: none; stroke: #d62728; stroke-width: 1.5; stroke-linecap: square"/>
   </g>
   <g id="line2d_17">
    <path d="M 131.744681 369.44 
L 132.937881 328.057896 
L 134.131081 317.301816 
L 135.324281 309.756678 
L 136.517481 303.750004 
L 137.710681 298.677597 
L 138.903881 294.243726 
L 141.290281 286.675791 
L 143.676681 280.284959 
L 146.063081 274.698632 
L 148.449481 269.703241 
L 150.835882 265.163631 
L 153.222282 260.988206 
L 156.801882 255.269912 
L 160.381482 250.073356 
L 163.961082 245.293687 
L 167.540682 240.85618 
L 171.120282 236.70548 
L 175.893082 231.545648 
L 180.665883 226.745514 
L 185.438683 222.24827 
L 190.211483 218.010229 
L 196.177483 213.025447 
L 202.143483 208.339616 
L 208.109484 203.911583 
L 215.268684 198.892542 
L 222.427884 194.152707 
L 229.587084 189.656214 
L 237.939485 184.679453 
L 246.291885 179.957263 
L 255.837485 174.833645 
L 265.383086 169.966483 
L 276.121886 164.760493 
L 286.860686 159.806659 
L 298.792687 154.563667 
L 310.724687 149.564761 
L 323.849888 144.316311 
L 336.975088 139.301796 
L 351.293489 134.0696 
L 366.805089 128.652107 
L 369.191489 127.84 
L 369.191489 127.84 
" clip-path="url(#pa26acf5109)" style="fill: none; stroke: #9467bd; stroke-width: 1.5; stroke-linecap: square"/>
   </g>
   <g id="line2d_18">
    <path d="M 131.744681 369.44 
L 132.937881 212.149158 
L 134.131081 203.05611 
L 135.324281 197.49524 
L 136.517481 193.437388 
L 137.710681 190.224041 
L 138.903881 187.555043 
L 140.097081 185.267451 
L 141.290281 183.262605 
L 143.676681 179.863492 
L 146.063081 177.040199 
L 148.449481 174.62036 
L 150.835882 172.499613 
L 153.222282 170.609828 
L 156.801882 168.109113 
L 160.381482 165.917487 
L 163.961082 163.964541 
L 168.733882 161.649994 
L 173.506682 159.595233 
L 179.472683 157.310927 
L 185.438683 155.275396 
L 192.597883 153.09091 
L 199.757083 151.130986 
L 208.109484 149.07102 
L 217.655084 146.95642 
L 228.393884 144.821529 
L 240.325885 142.691391 
L 253.451085 140.58368 
L 267.769486 138.510452 
L 284.474286 136.331398 
L 302.372287 134.227492 
L 322.656688 132.075445 
L 345.327489 129.905984 
L 369.191489 127.84 
L 369.191489 127.84 
" clip-path="url(#pa26acf5109)" style="fill: none; stroke: #8c564b; stroke-width: 1.5; stroke-linecap: square"/>
   </g>
   <g id="line2d_19">
    <path d="M 131.744681 369.44 
L 132.937881 134.181727 
L 134.131081 133.360858 
L 135.324281 132.879353 
L 137.710681 132.271331 
L 141.290281 131.710517 
L 146.063081 131.225647 
L 153.222282 130.739787 
L 163.961082 130.252936 
L 180.665883 129.750314 
L 205.723084 129.251673 
L 242.712285 128.761787 
L 297.599487 128.275253 
L 369.191489 127.84 
L 369.191489 127.84 
" clip-path="url(#pa26acf5109)" style="fill: none; stroke: #e377c2; stroke-width: 1.5; stroke-linecap: square"/>
   </g>
   <g id="patch_3">
    <path d="M 108 393.6 
L 108 103.68 
" style="fill: none; stroke: #000000; stroke-width: 0.8; stroke-linejoin: miter; stroke-linecap: square"/>
   </g>
   <g id="patch_4">
    <path d="M 392.93617 393.6 
L 392.93617 103.68 
" style="fill: none; stroke: #000000; stroke-width: 0.8; stroke-linejoin: miter; stroke-linecap: square"/>
   </g>
   <g id="patch_5">
    <path d="M 108 393.6 
L 392.93617 393.6 
" style="fill: none; stroke: #000000; stroke-width: 0.8; stroke-linejoin: miter; stroke-linecap: square"/>
   </g>
   <g id="patch_6">
    <path d="M 108 103.68 
L 392.93617 103.68 
" style="fill: none; stroke: #000000; stroke-width: 0.8; stroke-linejoin: miter; stroke-linecap: square"/>
   </g>
   <g id="text_7">
    <!-- expo_gain -->
    <g transform="translate(212.250898 97.68) scale(0.15 -0.15)">
     <defs>
      <path id="DejaVuSans-65" d="M 3597 1894 
L 3597 1613 
L 953 1613 
Q 991 1019 1311 708 
Q 1631 397 2203 397 
Q 2534 397 2845 478 
Q 3156 559 3463 722 
L 3463 178 
Q 3153 47 2828 -22 
Q 2503 -91 2169 -91 
Q 1331 -91 842 396 
Q 353 884 353 1716 
Q 353 2575 817 3079 
Q 1281 3584 2069 3584 
Q 2775 3584 3186 3129 
Q 3597 2675 3597 1894 
z
M 3022 2063 
Q 3016 2534 2758 2815 
Q 2500 3097 2075 3097 
Q 1594 3097 1305 2825 
Q 1016 2553 972 2059 
L 3022 2063 
z
" transform="scale(0.015625)"/>
      <path id="DejaVuSans-78" d="M 3513 3500 
L 2247 1797 
L 3578 0 
L 2900 0 
L 1881 1375 
L 863 0 
L 184 0 
L 1544 1831 
L 300 3500 
L 978 3500 
L 1906 2253 
L 2834 3500 
L 3513 3500 
z
" transform="scale(0.015625)"/>
      <path id="DejaVuSans-70" d="M 1159 525 
L 1159 -1331 
L 581 -1331 
L 581 3500 
L 1159 3500 
L 1159 2969 
Q 1341 3281 1617 3432 
Q 1894 3584 2278 3584 
Q 2916 3584 3314 3078 
Q 3713 2572 3713 1747 
Q 3713 922 3314 415 
Q 2916 -91 2278 -91 
Q 1894 -91 1617 61 
Q 1341 213 1159 525 
z
M 3116 1747 
Q 3116 2381 2855 2742 
Q 2594 3103 2138 3103 
Q 1681 3103 1420 2742 
Q 1159 2381 1159 1747 
Q 1159 1113 1420 752 
Q 1681 391 2138 391 
Q 2594 391 2855 752 
Q 3116 1113 3116 1747 
z
" transform="scale(0.015625)"/>
      <path id="DejaVuSans-6f" d="M 1959 3097 
Q 1497 3097 1228 2736 
Q 959 2375 959 1747 
Q 959 1119 1226 758 
Q 1494 397 1959 397 
Q 2419 397 2687 759 
Q 2956 1122 2956 1747 
Q 2956 2369 2687 2733 
Q 2419 3097 1959 3097 
z
M 1959 3584 
Q 2709 3584 3137 3096 
Q 3566 2609 3566 1747 
Q 3566 888 3137 398 
Q 2709 -91 1959 -91 
Q 1206 -91 779 398 
Q 353 888 353 1747 
Q 353 2609 779 3096 
Q 1206 3584 1959 3584 
z
" transform="scale(0.015625)"/>
      <path id="DejaVuSans-5f" d="M 3263 -1063 
L 3263 -1509 
L -63 -1509 
L -63 -1063 
L 3263 -1063 
z
" transform="scale(0.015625)"/>
      <path id="DejaVuSans-67" d="M 2906 1791 
Q 2906 2416 2648 2759 
Q 2391 3103 1925 3103 
Q 1463 3103 1205 2759 
Q 947 2416 947 1791 
Q 947 1169 1205 825 
Q 1463 481 1925 481 
Q 2391 481 2648 825 
Q 2906 1169 2906 1791 
z
M 3481 434 
Q 3481 -459 3084 -895 
Q 2688 -1331 1869 -1331 
Q 1566 -1331 1297 -1286 
Q 1028 -1241 775 -1147 
L 775 -588 
Q 1028 -725 1275 -790 
Q 1522 -856 1778 -856 
Q 2344 -856 2625 -561 
Q 2906 -266 2906 331 
L 2906 616 
Q 2728 306 2450 153 
Q 2172 0 1784 0 
Q 1141 0 747 490 
Q 353 981 353 1791 
Q 353 2603 747 3093 
Q 1141 3584 1784 3584 
Q 2172 3584 2450 3431 
Q 2728 3278 2906 2969 
L 2906 3500 
L 3481 3500 
L 3481 434 
z
" transform="scale(0.015625)"/>
      <path id="DejaVuSans-61" d="M 2194 1759 
Q 1497 1759 1228 1600 
Q 959 1441 959 1056 
Q 959 750 1161 570 
Q 1363 391 1709 391 
Q 2188 391 2477 730 
Q 2766 1069 2766 1631 
L 2766 1759 
L 2194 1759 
z
M 3341 1997 
L 3341 0 
L 2766 0 
L 2766 531 
Q 2569 213 2275 61 
Q 1981 -91 1556 -91 
Q 1019 -91 701 211 
Q 384 513 384 1019 
Q 384 1609 779 1909 
Q 1175 2209 1959 2209 
L 2766 2209 
L 2766 2266 
Q 2766 2663 2505 2880 
Q 2244 3097 1772 3097 
Q 1472 3097 1187 3025 
Q 903 2953 641 2809 
L 641 3341 
Q 956 3463 1253 3523 
Q 1550 3584 1831 3584 
Q 2591 3584 2966 3190 
Q 3341 2797 3341 1997 
z
" transform="scale(0.015625)"/>
      <path id="DejaVuSans-69" d="M 603 3500 
L 1178 3500 
L 1178 0 
L 603 0 
L 603 3500 
z
M 603 4863 
L 1178 4863 
L 1178 4134 
L 603 4134 
L 603 4863 
z
" transform="scale(0.015625)"/>
      <path id="DejaVuSans-6e" d="M 3513 2113 
L 3513 0 
L 2938 0 
L 2938 2094 
Q 2938 2591 2744 2837 
Q 2550 3084 2163 3084 
Q 1697 3084 1428 2787 
Q 1159 2491 1159 1978 
L 1159 0 
L 581 0 
L 581 3500 
L 1159 3500 
L 1159 2956 
Q 1366 3272 1645 3428 
Q 1925 3584 2291 3584 
Q 2894 3584 3203 3211 
Q 3513 2838 3513 2113 
z
" transform="scale(0.015625)"/>
     </defs>
     <use xlink:href="#DejaVuSans-65"/>
     <use xlink:href="#DejaVuSans-78" x="59.773438"/>
     <use xlink:href="#DejaVuSans-70" x="118.953125"/>
     <use xlink:href="#DejaVuSans-6f" x="182.429688"/>
     <use xlink:href="#DejaVuSans-5f" x="243.611328"/>
     <use xlink:href="#DejaVuSans-67" x="293.611328"/>
     <use xlink:href="#DejaVuSans-61" x="357.087891"/>
     <use xlink:href="#DejaVuSans-69" x="418.367188"/>
     <use xlink:href="#DejaVuSans-6e" x="446.150391"/>
    </g>
   </g>
  </g>
  <g id="axes_2">
   <g id="patch_7">
    <path d="M 492.66383 393.6 
L 777.6 393.6 
L 777.6 103.68 
L 492.66383 103.68 
z
" style="fill: #ffffff"/>
   </g>
   <g id="matplotlib.axis_3">
    <g id="xtick_4">
     <g id="line2d_20">
      <path d="M 516.408511 393.6 
L 516.408511 103.68 
" clip-path="url(#p4eebc2f9ac)" style="fill: none; stroke-dasharray: 0.8,1.32; stroke-dashoffset: 0; stroke: #b0b0b0; stroke-width: 0.8"/>
     </g>
     <g id="line2d_21">
      <g>
       <use xlink:href="#md36b369c47" x="516.408511" y="393.6" style="stroke: #000000; stroke-width: 0.8"/>
      </g>
     </g>
     <g id="text_8">
      <!-- 0.0 -->
      <g transform="translate(504.481167 411.997656) scale(0.15 -0.15)">
       <use xlink:href="#DejaVuSans-30"/>
       <use xlink:href="#DejaVuSans-2e" x="63.623047"/>
       <use xlink:href="#DejaVuSans-30" x="95.410156"/>
      </g>
     </g>
    </g>
    <g id="xtick_5">
     <g id="line2d_22">
      <path d="M 635.131915 393.6 
L 635.131915 103.68 
" clip-path="url(#p4eebc2f9ac)" style="fill: none; stroke-dasharray: 0.8,1.32; stroke-dashoffset: 0; stroke: #b0b0b0; stroke-width: 0.8"/>
     </g>
     <g id="line2d_23">
      <g>
       <use xlink:href="#md36b369c47" x="635.131915" y="393.6" style="stroke: #000000; stroke-width: 0.8"/>
      </g>
     </g>
     <g id="text_9">
      <!-- 0.5 -->
      <g transform="translate(623.204571 411.997656) scale(0.15 -0.15)">
       <use xlink:href="#DejaVuSans-30"/>
       <use xlink:href="#DejaVuSans-2e" x="63.623047"/>
       <use xlink:href="#DejaVuSans-35" x="95.410156"/>
      </g>
     </g>
    </g>
    <g id="xtick_6">
     <g id="line2d_24">
      <path d="M 753.855319 393.6 
L 753.855319 103.68 
" clip-path="url(#p4eebc2f9ac)" style="fill: none; stroke-dasharray: 0.8,1.32; stroke-dashoffset: 0; stroke: #b0b0b0; stroke-width: 0.8"/>
     </g>
     <g id="line2d_25">
      <g>
       <use xlink:href="#md36b369c47" x="753.855319" y="393.6" style="stroke: #000000; stroke-width: 0.8"/>
      </g>
     </g>
     <g id="text_10">
      <!-- 1.0 -->
      <g transform="translate(741.927975 411.997656) scale(0.15 -0.15)">
       <use xlink:href="#DejaVuSans-31"/>
       <use xlink:href="#DejaVuSans-2e" x="63.623047"/>
       <use xlink:href="#DejaVuSans-30" x="95.410156"/>
      </g>
     </g>
    </g>
   </g>
   <g id="matplotlib.axis_4">
    <g id="ytick_4">
     <g id="line2d_26">
      <path d="M 492.66383 369.44 
L 777.6 369.44 
" clip-path="url(#p4eebc2f9ac)" style="fill: none; stroke-dasharray: 0.8,1.32; stroke-dashoffset: 0; stroke: #b0b0b0; stroke-width: 0.8"/>
     </g>
     <g id="line2d_27">
      <g>
       <use xlink:href="#ma5bf11d7fd" x="492.66383" y="369.44" style="stroke: #000000; stroke-width: 0.8"/>
      </g>
     </g>
     <g id="text_11">
      <!-- 0.0 -->
      <g transform="translate(461.809142 375.138828) scale(0.15 -0.15)">
       <use xlink:href="#DejaVuSans-30"/>
       <use xlink:href="#DejaVuSans-2e" x="63.623047"/>
       <use xlink:href="#DejaVuSans-30" x="95.410156"/>
      </g>
     </g>
    </g>
    <g id="ytick_5">
     <g id="line2d_28">
      <path d="M 492.66383 248.64 
L 777.6 248.64 
" clip-path="url(#p4eebc2f9ac)" style="fill: none; stroke-dasharray: 0.8,1.32; stroke-dashoffset: 0; stroke: #b0b0b0; stroke-width: 0.8"/>
     </g>
     <g id="line2d_29">
      <g>
       <use xlink:href="#ma5bf11d7fd" x="492.66383" y="248.64" style="stroke: #000000; stroke-width: 0.8"/>
      </g>
     </g>
     <g id="text_12">
      <!-- 0.5 -->
      <g transform="translate(461.809142 254.338828) scale(0.15 -0.15)">
       <use xlink:href="#DejaVuSans-30"/>
       <use xlink:href="#DejaVuSans-2e" x="63.623047"/>
       <use xlink:href="#DejaVuSans-35" x="95.410156"/>
      </g>
     </g>
    </g>
    <g id="ytick_6">
     <g id="line2d_30">
      <path d="M 492.66383 127.84 
L 777.6 127.84 
" clip-path="url(#p4eebc2f9ac)" style="fill: none; stroke-dasharray: 0.8,1.32; stroke-dashoffset: 0; stroke: #b0b0b0; stroke-width: 0.8"/>
     </g>
     <g id="line2d_31">
      <g>
       <use xlink:href="#ma5bf11d7fd" x="492.66383" y="127.84" style="stroke: #000000; stroke-width: 0.8"/>
      </g>
     </g>
     <g id="text_13">
      <!-- 1.0 -->
      <g transform="translate(461.809142 133.538828) scale(0.15 -0.15)">
       <use xlink:href="#DejaVuSans-31"/>
       <use xlink:href="#DejaVuSans-2e" x="63.623047"/>
       <use xlink:href="#DejaVuSans-30" x="95.410156"/>
      </g>
     </g>
    </g>
   </g>
   <g id="line2d_32">
    <path d="M 516.408511 369.44 
L 578.454913 369.011295 
L 619.023714 368.519538 
L 646.467315 367.97852 
L 666.751716 367.362501 
L 681.070117 366.724288 
L 691.808917 366.055989 
L 701.354517 365.237554 
L 708.513718 364.403408 
L 714.479718 363.483428 
L 719.252518 362.526686 
L 722.832118 361.623131 
L 726.411718 360.493734 
L 728.798118 359.569722 
L 731.184518 358.460954 
L 733.570918 357.105863 
L 735.957319 355.412105 
L 738.343719 353.234591 
L 739.536919 351.89468 
L 740.730119 350.331544 
L 741.923319 348.484332 
L 743.116519 346.267865 
L 744.309719 343.559125 
L 745.502919 340.173628 
L 746.696119 335.821543 
L 747.889319 330.019983 
L 749.082519 321.900141 
L 750.275719 309.725498 
L 751.468919 289.448067 
L 752.662119 248.944282 
L 753.855319 127.84 
L 753.855319 127.84 
" clip-path="url(#p4eebc2f9ac)" style="fill: none; stroke: #1f77b4; stroke-width: 1.5; stroke-linecap: square"/>
   </g>
   <g id="line2d_33">
    <path d="M 516.408511 369.44 
L 534.306511 367.853542 
L 551.011312 366.143905 
L 565.329712 364.461478 
L 578.454913 362.7037 
L 590.386913 360.888601 
L 601.125714 359.041778 
L 610.671314 357.19728 
L 620.216914 355.124994 
L 628.569315 353.08982 
L 636.921715 350.808083 
L 644.080915 348.620242 
L 651.240115 346.178881 
L 657.206116 343.91735 
L 663.172116 341.414096 
L 669.138116 338.628177 
L 673.910916 336.162226 
L 678.683716 333.451391 
L 683.456517 330.457288 
L 688.229317 327.133069 
L 691.808917 324.389006 
L 695.388517 321.397578 
L 698.968117 318.123758 
L 702.547717 314.525576 
L 706.127317 310.552315 
L 709.706918 306.142102 
L 713.286518 301.218665 
L 715.672918 297.605223 
L 718.059318 293.687866 
L 720.445718 289.426572 
L 722.832118 284.773964 
L 725.218518 279.673546 
L 727.604918 274.057398 
L 729.991318 267.843132 
L 732.377718 260.929826 
L 734.764118 253.192498 
L 737.150519 244.474483 
L 739.536919 234.576716 
L 741.923319 223.242348 
L 744.309719 210.134131 
L 746.696119 194.8003 
L 749.082519 176.621446 
L 750.275719 166.205665 
L 751.468919 154.724812 
L 752.662119 142.006719 
L 753.855319 127.84 
L 753.855319 127.84 
" clip-path="url(#p4eebc2f9ac)" style="fill: none; stroke: #ff7f0e; stroke-width: 1.5; stroke-linecap: square"/>
   </g>
   <g id="line2d_34">
    <path d="M 516.408511 369.44 
L 527.147311 365.68456 
L 537.886111 361.688128 
L 547.431712 357.914128 
L 556.977312 353.911834 
L 566.522912 349.659883 
L 574.875313 345.715752 
L 583.227713 341.543918 
L 591.580113 337.124076 
L 599.932514 332.433435 
L 607.091714 328.177978 
L 614.250914 323.686651 
L 621.410114 318.939287 
L 628.569315 313.91335 
L 635.728515 308.583577 
L 641.694515 303.889612 
L 647.660515 298.946631 
L 653.626516 293.734278 
L 659.592516 288.229916 
L 665.558516 282.4083 
L 671.524516 276.241187 
L 677.490516 269.696881 
L 682.263317 264.166019 
L 687.036117 258.350611 
L 691.808917 252.228119 
L 696.581717 245.773559 
L 701.354517 238.959164 
L 706.127317 231.753978 
L 710.900118 224.123395 
L 715.672918 216.028593 
L 720.445718 207.425882 
L 725.218518 198.265911 
L 729.991318 188.49272 
L 733.570918 180.722403 
L 737.150519 172.541322 
L 740.730119 163.916018 
L 744.309719 154.809302 
L 747.889319 145.179713 
L 751.468919 134.980887 
L 753.855319 127.84 
L 753.855319 127.84 
" clip-path="url(#p4eebc2f9ac)" style="fill: none; stroke: #2ca02c; stroke-width: 1.5; stroke-linecap: square"/>
   </g>
   <g id="line2d_35">
    <path d="M 516.408511 369.44 
L 753.855319 127.84 
L 753.855319 127.84 
" clip-path="url(#p4eebc2f9ac)" style="fill: none; stroke: #d62728; stroke-width: 1.5; stroke-linecap: square"/>
   </g>
   <g id="line2d_36">
    <path d="M 516.408511 369.44 
L 519.988111 358.833171 
L 523.567711 348.829573 
L 527.147311 339.379171 
L 530.726911 330.437309 
L 534.306511 321.964017 
L 539.079311 311.333671 
L 543.852112 301.397551 
L 548.624912 292.089802 
L 553.397712 283.352644 
L 558.170512 275.135167 
L 562.943312 267.392347 
L 567.716112 260.084211 
L 572.488913 253.175154 
L 577.261713 246.633355 
L 582.034513 240.430291 
L 586.807313 234.540315 
L 591.580113 228.940308 
L 597.546114 222.316418 
L 603.512114 216.076522 
L 609.478114 210.188169 
L 615.444114 204.622466 
L 621.410114 199.3536 
L 627.376115 194.358442 
L 633.342115 189.616203 
L 640.501315 184.23312 
L 647.660515 179.158377 
L 654.819716 174.366218 
L 661.978916 169.833679 
L 669.138116 165.54022 
L 677.490516 160.80887 
L 685.842917 156.351801 
L 694.195317 152.145835 
L 702.547717 148.170333 
L 712.093318 143.885541 
L 721.638918 139.85326 
L 731.184518 136.051807 
L 741.923319 132.027175 
L 752.662119 128.24605 
L 753.855319 127.84 
L 753.855319 127.84 
" clip-path="url(#p4eebc2f9ac)" style="fill: none; stroke: #9467bd; stroke-width: 1.5; stroke-linecap: square"/>
   </g>
   <g id="line2d_37">
    <path d="M 516.408511 369.44 
L 517.601711 355.273281 
L 518.794911 342.555188 
L 521.181311 320.658554 
L 523.567711 302.4797 
L 525.954111 287.145869 
L 528.340511 274.037652 
L 530.726911 262.703284 
L 533.113311 252.805517 
L 535.499711 244.087502 
L 537.886111 236.350174 
L 540.272511 229.436868 
L 542.658912 223.222602 
L 545.045312 217.606454 
L 547.431712 212.506036 
L 549.818112 207.853428 
L 552.204512 203.592134 
L 554.590912 199.674777 
L 556.977312 196.061335 
L 560.556912 191.137898 
L 564.136512 186.727685 
L 567.716112 182.754424 
L 571.295713 179.156242 
L 574.875313 175.882422 
L 578.454913 172.890994 
L 582.034513 170.146931 
L 586.807313 166.822712 
L 591.580113 163.828609 
L 596.352914 161.117774 
L 601.125714 158.651823 
L 605.898514 156.399009 
L 611.864514 153.842774 
L 617.830514 151.535784 
L 623.796514 149.443281 
L 630.955715 147.175509 
L 638.114915 145.135351 
L 646.467315 142.999656 
L 654.819716 141.087831 
L 664.365316 139.134411 
L 675.104116 137.18495 
L 685.842917 135.45541 
L 697.774917 133.749037 
L 710.900118 132.090334 
L 725.218518 130.496973 
L 741.923319 128.872038 
L 753.855319 127.84 
L 753.855319 127.84 
" clip-path="url(#p4eebc2f9ac)" style="fill: none; stroke: #8c564b; stroke-width: 1.5; stroke-linecap: square"/>
   </g>
   <g id="line2d_38">
    <path d="M 516.408511 369.44 
L 517.601711 248.335718 
L 518.794911 207.831933 
L 519.988111 187.554502 
L 521.181311 175.379859 
L 522.374511 167.260017 
L 523.567711 161.458457 
L 524.760911 157.106372 
L 525.954111 153.720875 
L 527.147311 151.012135 
L 528.340511 148.795668 
L 529.533711 146.948456 
L 530.726911 145.38532 
L 531.920111 144.045409 
L 534.306511 141.867895 
L 536.692911 140.174137 
L 539.079311 138.819046 
L 541.465712 137.710278 
L 545.045312 136.379689 
L 548.624912 135.334175 
L 553.397712 134.24505 
L 558.170512 133.397918 
L 564.136512 132.57142 
L 571.295713 131.81172 
L 580.841313 131.056601 
L 592.773313 130.374069 
L 607.091714 129.789026 
L 626.182915 129.243812 
L 651.240115 128.760462 
L 685.842917 128.326357 
L 735.957319 127.938933 
L 753.855319 127.84 
L 753.855319 127.84 
" clip-path="url(#p4eebc2f9ac)" style="fill: none; stroke: #e377c2; stroke-width: 1.5; stroke-linecap: square"/>
   </g>
   <g id="patch_8">
    <path d="M 492.66383 393.6 
L 492.66383 103.68 
" style="fill: none; stroke: #000000; stroke-width: 0.8; stroke-linejoin: miter; stroke-linecap: square"/>
   </g>
   <g id="patch_9">
    <path d="M 777.6 393.6 
L 777.6 103.68 
" style="fill: none; stroke: #000000; stroke-width: 0.8; stroke-linejoin: miter; stroke-linecap: square"/>
   </g>
   <g id="patch_10">
    <path d="M 492.66383 393.6 
L 777.6 393.6 
" style="fill: none; stroke: #000000; stroke-width: 0.8; stroke-linejoin: miter; stroke-linecap: square"/>
   </g>
   <g id="patch_11">
    <path d="M 492.66383 103.68 
L 777.6 103.68 
" style="fill: none; stroke: #000000; stroke-width: 0.8; stroke-linejoin: miter; stroke-linecap: square"/>
   </g>
   <g id="text_14">
    <!-- ratio_gain -->
    <g transform="translate(597.895587 97.68) scale(0.15 -0.15)">
     <defs>
      <path id="DejaVuSans-72" d="M 2631 2963 
Q 2534 3019 2420 3045 
Q 2306 3072 2169 3072 
Q 1681 3072 1420 2755 
Q 1159 2438 1159 1844 
L 1159 0 
L 581 0 
L 581 3500 
L 1159 3500 
L 1159 2956 
Q 1341 3275 1631 3429 
Q 1922 3584 2338 3584 
Q 2397 3584 2469 3576 
Q 2541 3569 2628 3553 
L 2631 2963 
z
" transform="scale(0.015625)"/>
      <path id="DejaVuSans-74" d="M 1172 4494 
L 1172 3500 
L 2356 3500 
L 2356 3053 
L 1172 3053 
L 1172 1153 
Q 1172 725 1289 603 
Q 1406 481 1766 481 
L 2356 481 
L 2356 0 
L 1766 0 
Q 1100 0 847 248 
Q 594 497 594 1153 
L 594 3053 
L 172 3053 
L 172 3500 
L 594 3500 
L 594 4494 
L 1172 4494 
z
" transform="scale(0.015625)"/>
     </defs>
     <use xlink:href="#DejaVuSans-72"/>
     <use xlink:href="#DejaVuSans-61" x="41.113281"/>
     <use xlink:href="#DejaVuSans-74" x="102.392578"/>
     <use xlink:href="#DejaVuSans-69" x="141.601562"/>
     <use xlink:href="#DejaVuSans-6f" x="169.384766"/>
     <use xlink:href="#DejaVuSans-5f" x="230.566406"/>
     <use xlink:href="#DejaVuSans-67" x="280.566406"/>
     <use xlink:href="#DejaVuSans-61" x="344.042969"/>
     <use xlink:href="#DejaVuSans-69" x="405.322266"/>
     <use xlink:href="#DejaVuSans-6e" x="433.105469"/>
    </g>
   </g>
   <g id="legend_1">
    <g id="patch_12">
     <path d="M 404.914383 470.9792 
L 483.872195 470.9792 
Q 485.872195 470.9792 485.872195 468.9792 
L 485.872195 367.232325 
Q 485.872195 365.232325 483.872195 365.232325 
L 404.914383 365.232325 
Q 402.914383 365.232325 402.914383 367.232325 
L 402.914383 468.9792 
Q 402.914383 470.9792 404.914383 470.9792 
z
" style="fill: #4c4c4c; opacity: 0.5; stroke: #4c4c4c; stroke-linejoin: miter"/>
    </g>
    <g id="patch_13">
     <path d="M 402.914383 468.9792 
L 481.872195 468.9792 
Q 483.872195 468.9792 483.872195 466.9792 
L 483.872195 365.232325 
Q 483.872195 363.232325 481.872195 363.232325 
L 402.914383 363.232325 
Q 400.914383 363.232325 400.914383 365.232325 
L 400.914383 466.9792 
Q 400.914383 468.9792 402.914383 468.9792 
z
" style="fill: #ffffff; stroke: #cccccc; stroke-linejoin: miter"/>
    </g>
    <g id="line2d_39">
     <path d="M 404.914383 371.330762 
L 414.914383 371.330762 
L 424.914383 371.330762 
" style="fill: none; stroke: #1f77b4; stroke-width: 1.5; stroke-linecap: square"/>
    </g>
    <g id="text_15">
     <!-- p = -0.99 -->
     <g transform="translate(432.914383 374.830762) scale(0.1 -0.1)">
      <defs>
       <path id="DejaVuSans-20" transform="scale(0.015625)"/>
       <path id="DejaVuSans-3d" d="M 678 2906 
L 4684 2906 
L 4684 2381 
L 678 2381 
L 678 2906 
z
M 678 1631 
L 4684 1631 
L 4684 1100 
L 678 1100 
L 678 1631 
z
" transform="scale(0.015625)"/>
       <path id="DejaVuSans-2d" d="M 313 2009 
L 1997 2009 
L 1997 1497 
L 313 1497 
L 313 2009 
z
" transform="scale(0.015625)"/>
       <path id="DejaVuSans-39" d="M 703 97 
L 703 672 
Q 941 559 1184 500 
Q 1428 441 1663 441 
Q 2288 441 2617 861 
Q 2947 1281 2994 2138 
Q 2813 1869 2534 1725 
Q 2256 1581 1919 1581 
Q 1219 1581 811 2004 
Q 403 2428 403 3163 
Q 403 3881 828 4315 
Q 1253 4750 1959 4750 
Q 2769 4750 3195 4129 
Q 3622 3509 3622 2328 
Q 3622 1225 3098 567 
Q 2575 -91 1691 -91 
Q 1453 -91 1209 -44 
Q 966 3 703 97 
z
M 1959 2075 
Q 2384 2075 2632 2365 
Q 2881 2656 2881 3163 
Q 2881 3666 2632 3958 
Q 2384 4250 1959 4250 
Q 1534 4250 1286 3958 
Q 1038 3666 1038 3163 
Q 1038 2656 1286 2365 
Q 1534 2075 1959 2075 
z
" transform="scale(0.015625)"/>
      </defs>
      <use xlink:href="#DejaVuSans-70"/>
      <use xlink:href="#DejaVuSans-20" x="63.476562"/>
      <use xlink:href="#DejaVuSans-3d" x="95.263672"/>
      <use xlink:href="#DejaVuSans-20" x="179.052734"/>
      <use xlink:href="#DejaVuSans-2d" x="210.839844"/>
      <use xlink:href="#DejaVuSans-30" x="246.923828"/>
      <use xlink:href="#DejaVuSans-2e" x="310.546875"/>
      <use xlink:href="#DejaVuSans-39" x="342.333984"/>
      <use xlink:href="#DejaVuSans-39" x="405.957031"/>
     </g>
    </g>
    <g id="line2d_40">
     <path d="M 404.914383 386.008888 
L 414.914383 386.008888 
L 424.914383 386.008888 
" style="fill: none; stroke: #ff7f0e; stroke-width: 1.5; stroke-linecap: square"/>
    </g>
    <g id="text_16">
     <!-- p = -0.85 -->
     <g transform="translate(432.914383 389.508888) scale(0.1 -0.1)">
      <defs>
       <path id="DejaVuSans-38" d="M 2034 2216 
Q 1584 2216 1326 1975 
Q 1069 1734 1069 1313 
Q 1069 891 1326 650 
Q 1584 409 2034 409 
Q 2484 409 2743 651 
Q 3003 894 3003 1313 
Q 3003 1734 2745 1975 
Q 2488 2216 2034 2216 
z
M 1403 2484 
Q 997 2584 770 2862 
Q 544 3141 544 3541 
Q 544 4100 942 4425 
Q 1341 4750 2034 4750 
Q 2731 4750 3128 4425 
Q 3525 4100 3525 3541 
Q 3525 3141 3298 2862 
Q 3072 2584 2669 2484 
Q 3125 2378 3379 2068 
Q 3634 1759 3634 1313 
Q 3634 634 3220 271 
Q 2806 -91 2034 -91 
Q 1263 -91 848 271 
Q 434 634 434 1313 
Q 434 1759 690 2068 
Q 947 2378 1403 2484 
z
M 1172 3481 
Q 1172 3119 1398 2916 
Q 1625 2713 2034 2713 
Q 2441 2713 2670 2916 
Q 2900 3119 2900 3481 
Q 2900 3844 2670 4047 
Q 2441 4250 2034 4250 
Q 1625 4250 1398 4047 
Q 1172 3844 1172 3481 
z
" transform="scale(0.015625)"/>
      </defs>
      <use xlink:href="#DejaVuSans-70"/>
      <use xlink:href="#DejaVuSans-20" x="63.476562"/>
      <use xlink:href="#DejaVuSans-3d" x="95.263672"/>
      <use xlink:href="#DejaVuSans-20" x="179.052734"/>
      <use xlink:href="#DejaVuSans-2d" x="210.839844"/>
      <use xlink:href="#DejaVuSans-30" x="246.923828"/>
      <use xlink:href="#DejaVuSans-2e" x="310.546875"/>
      <use xlink:href="#DejaVuSans-38" x="342.333984"/>
      <use xlink:href="#DejaVuSans-35" x="405.957031"/>
     </g>
    </g>
    <g id="line2d_41">
     <path d="M 404.914383 400.687012 
L 414.914383 400.687012 
L 424.914383 400.687012 
" style="fill: none; stroke: #2ca02c; stroke-width: 1.5; stroke-linecap: square"/>
    </g>
    <g id="text_17">
     <!-- p = -0.5 -->
     <g transform="translate(432.914383 404.187012) scale(0.1 -0.1)">
      <use xlink:href="#DejaVuSans-70"/>
      <use xlink:href="#DejaVuSans-20" x="63.476562"/>
      <use xlink:href="#DejaVuSans-3d" x="95.263672"/>
      <use xlink:href="#DejaVuSans-20" x="179.052734"/>
      <use xlink:href="#DejaVuSans-2d" x="210.839844"/>
      <use xlink:href="#DejaVuSans-30" x="246.923828"/>
      <use xlink:href="#DejaVuSans-2e" x="310.546875"/>
      <use xlink:href="#DejaVuSans-35" x="342.333984"/>
     </g>
    </g>
    <g id="line2d_42">
     <path d="M 404.914383 415.365138 
L 414.914383 415.365138 
L 424.914383 415.365138 
" style="fill: none; stroke: #d62728; stroke-width: 1.5; stroke-linecap: square"/>
    </g>
    <g id="text_18">
     <!-- p = 0 -->
     <g transform="translate(432.914383 418.865138) scale(0.1 -0.1)">
      <use xlink:href="#DejaVuSans-70"/>
      <use xlink:href="#DejaVuSans-20" x="63.476562"/>
      <use xlink:href="#DejaVuSans-3d" x="95.263672"/>
      <use xlink:href="#DejaVuSans-20" x="179.052734"/>
      <use xlink:href="#DejaVuSans-30" x="210.839844"/>
     </g>
    </g>
    <g id="line2d_43">
     <path d="M 404.914383 430.043262 
L 414.914383 430.043262 
L 424.914383 430.043262 
" style="fill: none; stroke: #9467bd; stroke-width: 1.5; stroke-linecap: square"/>
    </g>
    <g id="text_19">
     <!-- p = 0.5 -->
     <g transform="translate(432.914383 433.543262) scale(0.1 -0.1)">
      <use xlink:href="#DejaVuSans-70"/>
      <use xlink:href="#DejaVuSans-20" x="63.476562"/>
      <use xlink:href="#DejaVuSans-3d" x="95.263672"/>
      <use xlink:href="#DejaVuSans-20" x="179.052734"/>
      <use xlink:href="#DejaVuSans-30" x="210.839844"/>
      <use xlink:href="#DejaVuSans-2e" x="274.462891"/>
      <use xlink:href="#DejaVuSans-35" x="306.25"/>
     </g>
    </g>
    <g id="line2d_44">
     <path d="M 404.914383 444.721387 
L 414.914383 444.721387 
L 424.914383 444.721387 
" style="fill: none; stroke: #8c564b; stroke-width: 1.5; stroke-linecap: square"/>
    </g>
    <g id="text_20">
     <!-- p = 0.85 -->
     <g transform="translate(432.914383 448.221387) scale(0.1 -0.1)">
      <use xlink:href="#DejaVuSans-70"/>
      <use xlink:href="#DejaVuSans-20" x="63.476562"/>
      <use xlink:href="#DejaVuSans-3d" x="95.263672"/>
      <use xlink:href="#DejaVuSans-20" x="179.052734"/>
      <use xlink:href="#DejaVuSans-30" x="210.839844"/>
      <use xlink:href="#DejaVuSans-2e" x="274.462891"/>
      <use xlink:href="#DejaVuSans-38" x="306.25"/>
      <use xlink:href="#DejaVuSans-35" x="369.873047"/>
     </g>
    </g>
    <g id="line2d_45">
     <path d="M 404.914383 459.399513 
L 414.914383 459.399513 
L 424.914383 459.399513 
" style="fill: none; stroke: #e377c2; stroke-width: 1.5; stroke-linecap: square"/>
    </g>
    <g id="text_21">
     <!-- p = 0.99 -->
     <g transform="translate(432.914383 462.899513) scale(0.1 -0.1)">
      <use xlink:href="#DejaVuSans-70"/>
      <use xlink:href="#DejaVuSans-20" x="63.476562"/>
      <use xlink:href="#DejaVuSans-3d" x="95.263672"/>
      <use xlink:href="#DejaVuSans-20" x="179.052734"/>
      <use xlink:href="#DejaVuSans-30" x="210.839844"/>
      <use xlink:href="#DejaVuSans-2e" x="274.462891"/>
      <use xlink:href="#DejaVuSans-39" x="306.25"/>
      <use xlink:href="#DejaVuSans-39" x="369.873047"/>
     </g>
    </g>
   </g>
  </g>
  <g id="axes_3">
   <g id="patch_14">
    <path d="M 108 756 
L 392.93617 756 
L 392.93617 466.08 
L 108 466.08 
z
" style="fill: #ffffff"/>
   </g>
   <g id="matplotlib.axis_5">
    <g id="xtick_7">
     <g id="line2d_46">
      <path d="M 131.744681 756 
L 131.744681 466.08 
" clip-path="url(#p3148c96698)" style="fill: none; stroke-dasharray: 0.8,1.32; stroke-dashoffset: 0; stroke: #b0b0b0; stroke-width: 0.8"/>
     </g>
     <g id="line2d_47">
      <g>
       <use xlink:href="#md36b369c47" x="131.744681" y="756" style="stroke: #000000; stroke-width: 0.8"/>
      </g>
     </g>
     <g id="text_22">
      <!-- 0.0 -->
      <g transform="translate(119.817337 774.397656) scale(0.15 -0.15)">
       <use xlink:href="#DejaVuSans-30"/>
       <use xlink:href="#DejaVuSans-2e" x="63.623047"/>
       <use xlink:href="#DejaVuSans-30" x="95.410156"/>
      </g>
     </g>
    </g>
    <g id="xtick_8">
     <g id="line2d_48">
      <path d="M 250.468085 756 
L 250.468085 466.08 
" clip-path="url(#p3148c96698)" style="fill: none; stroke-dasharray: 0.8,1.32; stroke-dashoffset: 0; stroke: #b0b0b0; stroke-width: 0.8"/>
     </g>
     <g id="line2d_49">
      <g>
       <use xlink:href="#md36b369c47" x="250.468085" y="756" style="stroke: #000000; stroke-width: 0.8"/>
      </g>
     </g>
     <g id="text_23">
      <!-- 0.5 -->
      <g transform="translate(238.540741 774.397656) scale(0.15 -0.15)">
       <use xlink:href="#DejaVuSans-30"/>
       <use xlink:href="#DejaVuSans-2e" x="63.623047"/>
       <use xlink:href="#DejaVuSans-35" x="95.410156"/>
      </g>
     </g>
    </g>
    <g id="xtick_9">
     <g id="line2d_50">
      <path d="M 369.191489 756 
L 369.191489 466.08 
" clip-path="url(#p3148c96698)" style="fill: none; stroke-dasharray: 0.8,1.32; stroke-dashoffset: 0; stroke: #b0b0b0; stroke-width: 0.8"/>
     </g>
     <g id="line2d_51">
      <g>
       <use xlink:href="#md36b369c47" x="369.191489" y="756" style="stroke: #000000; stroke-width: 0.8"/>
      </g>
     </g>
     <g id="text_24">
      <!-- 1.0 -->
      <g transform="translate(357.264146 774.397656) scale(0.15 -0.15)">
       <use xlink:href="#DejaVuSans-31"/>
       <use xlink:href="#DejaVuSans-2e" x="63.623047"/>
       <use xlink:href="#DejaVuSans-30" x="95.410156"/>
      </g>
     </g>
    </g>
   </g>
   <g id="matplotlib.axis_6">
    <g id="ytick_7">
     <g id="line2d_52">
      <path d="M 108 731.84 
L 392.93617 731.84 
" clip-path="url(#p3148c96698)" style="fill: none; stroke-dasharray: 0.8,1.32; stroke-dashoffset: 0; stroke: #b0b0b0; stroke-width: 0.8"/>
     </g>
     <g id="line2d_53">
      <g>
       <use xlink:href="#ma5bf11d7fd" x="108" y="731.84" style="stroke: #000000; stroke-width: 0.8"/>
      </g>
     </g>
     <g id="text_25">
      <!-- 0.0 -->
      <g transform="translate(77.145313 737.538828) scale(0.15 -0.15)">
       <use xlink:href="#DejaVuSans-30"/>
       <use xlink:href="#DejaVuSans-2e" x="63.623047"/>
       <use xlink:href="#DejaVuSans-30" x="95.410156"/>
      </g>
     </g>
    </g>
    <g id="ytick_8">
     <g id="line2d_54">
      <path d="M 108 611.04 
L 392.93617 611.04 
" clip-path="url(#p3148c96698)" style="fill: none; stroke-dasharray: 0.8,1.32; stroke-dashoffset: 0; stroke: #b0b0b0; stroke-width: 0.8"/>
     </g>
     <g id="line2d_55">
      <g>
       <use xlink:href="#ma5bf11d7fd" x="108" y="611.04" style="stroke: #000000; stroke-width: 0.8"/>
      </g>
     </g>
     <g id="text_26">
      <!-- 0.5 -->
      <g transform="translate(77.145313 616.738828) scale(0.15 -0.15)">
       <use xlink:href="#DejaVuSans-30"/>
       <use xlink:href="#DejaVuSans-2e" x="63.623047"/>
       <use xlink:href="#DejaVuSans-35" x="95.410156"/>
      </g>
     </g>
    </g>
    <g id="ytick_9">
     <g id="line2d_56">
      <path d="M 108 490.24 
L 392.93617 490.24 
" clip-path="url(#p3148c96698)" style="fill: none; stroke-dasharray: 0.8,1.32; stroke-dashoffset: 0; stroke: #b0b0b0; stroke-width: 0.8"/>
     </g>
     <g id="line2d_57">
      <g>
       <use xlink:href="#ma5bf11d7fd" x="108" y="490.24" style="stroke: #000000; stroke-width: 0.8"/>
      </g>
     </g>
     <g id="text_27">
      <!-- 1.0 -->
      <g transform="translate(77.145313 495.938828) scale(0.15 -0.15)">
       <use xlink:href="#DejaVuSans-31"/>
       <use xlink:href="#DejaVuSans-2e" x="63.623047"/>
       <use xlink:href="#DejaVuSans-30" x="95.410156"/>
      </g>
     </g>
    </g>
   </g>
   <g id="line2d_58">
    <path d="M 131.744681 731.84 
L 132.937881 613.800429 
L 134.131081 613.388562 
L 136.517481 612.975259 
L 140.097081 612.640524 
L 147.256281 612.269147 
L 159.188282 611.925838 
L 179.472683 611.591913 
L 215.268684 611.253283 
L 334.588688 610.293923 
L 351.293489 609.896867 
L 359.645889 609.519487 
L 364.418689 609.104741 
L 366.805089 608.691438 
L 367.998289 608.279571 
L 369.191489 490.24 
L 369.191489 490.24 
" clip-path="url(#p3148c96698)" style="fill: none; stroke: #1f77b4; stroke-width: 1.5; stroke-linecap: square"/>
   </g>
   <g id="line2d_59">
    <path d="M 131.744681 731.84 
L 132.937881 648.648055 
L 134.131081 643.838694 
L 135.324281 640.897521 
L 136.517481 638.751302 
L 137.710681 637.051746 
L 138.903881 635.640099 
L 141.290281 633.369806 
L 143.676681 631.571998 
L 146.063081 630.078743 
L 148.449481 628.798878 
L 152.029082 627.16393 
L 155.608682 625.775464 
L 160.381482 624.195883 
L 165.154282 622.842028 
L 171.120282 621.380256 
L 178.279483 619.873909 
L 186.631883 618.365185 
L 196.177483 616.880296 
L 206.916284 615.434432 
L 220.041484 613.905571 
L 235.553085 612.347789 
L 253.451085 610.791017 
L 270.155886 609.277064 
L 284.474286 607.779356 
L 297.599487 606.185982 
L 308.338287 604.66816 
L 317.883888 603.096004 
L 326.236288 601.48179 
L 333.395488 599.849417 
L 339.361488 598.240997 
L 344.134288 596.724954 
L 347.713889 595.402313 
L 351.293489 593.859151 
L 353.679889 592.66383 
L 356.066289 591.28586 
L 358.452689 589.655086 
L 360.839089 587.64982 
L 362.032289 586.439901 
L 363.225489 585.028254 
L 364.418689 583.328698 
L 365.611889 581.182479 
L 366.805089 578.241306 
L 367.998289 573.431945 
L 369.191489 490.24 
L 369.191489 490.24 
" clip-path="url(#p3148c96698)" style="fill: none; stroke: #ff7f0e; stroke-width: 1.5; stroke-linecap: square"/>
   </g>
   <g id="line2d_60">
    <path d="M 131.744681 731.84 
L 132.937881 705.770908 
L 134.131081 698.995002 
L 135.324281 694.241863 
L 136.517481 690.457896 
L 137.710681 687.262479 
L 138.903881 684.469316 
L 141.290281 679.701816 
L 143.676681 675.675844 
L 146.063081 672.156678 
L 148.449481 669.009779 
L 150.835882 666.150004 
L 154.415482 662.277192 
L 157.995082 658.793378 
L 161.574682 655.613512 
L 165.154282 652.678882 
L 169.927082 649.075791 
L 174.699882 645.761754 
L 179.472683 642.684959 
L 185.438683 639.115021 
L 191.404683 635.800643 
L 198.563883 632.103241 
L 205.723084 628.661359 
L 214.075484 624.9159 
L 222.427884 621.415925 
L 231.973484 617.669912 
L 241.519085 614.1548 
L 253.451085 610.019681 
L 264.189886 606.194284 
L 273.735486 602.568313 
L 283.281086 598.691794 
L 291.633487 595.05667 
L 298.792687 591.726882 
L 305.951887 588.16296 
L 311.917887 584.981368 
L 317.883888 581.570407 
L 323.849888 577.883647 
L 328.622688 574.693739 
L 333.395488 571.242731 
L 338.168288 567.469583 
L 341.747888 564.37703 
L 345.327489 561.002403 
L 348.907089 557.270977 
L 351.293489 554.53191 
L 353.679889 551.537161 
L 356.066289 548.217142 
L 358.452689 544.465897 
L 360.839089 540.108379 
L 362.032289 537.610684 
L 363.225489 534.817521 
L 364.418689 531.622104 
L 365.611889 527.838137 
L 366.805089 523.084998 
L 367.998289 516.309092 
L 369.191489 490.24 
L 369.191489 490.24 
" clip-path="url(#p3148c96698)" style="fill: none; stroke: #2ca02c; stroke-width: 1.5; stroke-linecap: square"/>
   </g>
   <g id="line2d_61">
    <path d="M 131.744681 731.84 
L 369.191489 490.24 
L 369.191489 490.24 
" clip-path="url(#p3148c96698)" style="fill: none; stroke: #d62728; stroke-width: 1.5; stroke-linecap: square"/>
   </g>
   <g id="line2d_62">
    <path d="M 131.744681 731.84 
L 142.483481 731.750603 
L 148.449481 731.503503 
L 153.222282 731.12482 
L 157.995082 730.534233 
L 162.767882 729.68465 
L 166.347482 728.84917 
L 169.927082 727.821651 
L 173.506682 726.582227 
L 177.086282 725.111032 
L 180.665883 723.388199 
L 184.245483 721.393863 
L 187.825083 719.108157 
L 191.404683 716.511216 
L 194.984283 713.583173 
L 198.563883 710.304162 
L 202.143483 706.654317 
L 205.723084 702.613773 
L 209.302684 698.162662 
L 212.882284 693.281118 
L 216.461884 687.949277 
L 220.041484 682.147271 
L 223.621084 675.855234 
L 227.200684 669.053301 
L 230.780284 661.721605 
L 234.359885 653.84028 
L 237.939485 645.38946 
L 241.519085 636.349279 
L 245.098685 626.69987 
L 248.678285 616.421369 
L 254.644285 598.735416 
L 258.223885 588.878518 
L 261.803486 579.637468 
L 265.383086 570.992402 
L 268.962686 562.923453 
L 272.542286 555.410754 
L 276.121886 548.434441 
L 279.701486 541.974646 
L 283.281086 536.011504 
L 286.860686 530.525148 
L 290.440287 525.495713 
L 294.019887 520.903332 
L 297.599487 516.728139 
L 301.179087 512.950268 
L 304.758687 509.549853 
L 308.338287 506.507028 
L 311.917887 503.801927 
L 315.497487 501.414684 
L 319.077088 499.325432 
L 322.656688 497.514305 
L 326.236288 495.961438 
L 329.815888 494.646964 
L 333.395488 493.551017 
L 336.975088 492.653732 
L 341.747888 491.732043 
L 346.520689 491.081121 
L 351.293489 490.653877 
L 357.259489 490.36263 
L 364.418689 490.247848 
L 369.191489 490.24 
L 369.191489 490.24 
" clip-path="url(#p3148c96698)" style="fill: none; stroke: #9467bd; stroke-width: 1.5; stroke-linecap: square"/>
   </g>
   <g id="line2d_63">
    <path d="M 131.744681 731.84 
L 198.563883 731.739252 
L 205.723084 731.486481 
L 210.495884 731.075653 
L 214.075484 730.517524 
L 216.461884 729.958799 
L 218.848284 729.190091 
L 221.234684 728.14168 
L 223.621084 726.72356 
L 226.007484 724.820335 
L 227.200684 723.642298 
L 228.393884 722.284997 
L 229.587084 720.723883 
L 230.780284 718.931412 
L 231.973484 716.87672 
L 233.166684 714.525271 
L 234.359885 711.838472 
L 235.553085 708.773251 
L 236.746285 705.281601 
L 237.939485 701.310079 
L 239.132685 696.799264 
L 240.325885 691.683168 
L 241.519085 685.888593 
L 242.712285 679.334439 
L 243.905485 671.930945 
L 245.098685 663.578881 
L 246.291885 654.168657 
L 247.485085 643.579376 
L 248.678285 631.677796 
L 253.451085 578.500624 
L 254.644285 567.911343 
L 255.837485 558.501119 
L 257.030685 550.149055 
L 258.223885 542.745561 
L 259.417085 536.191407 
L 260.610285 530.396832 
L 261.803486 525.280736 
L 262.996686 520.769921 
L 264.189886 516.798399 
L 265.383086 513.306749 
L 266.576286 510.241528 
L 267.769486 507.554729 
L 268.962686 505.20328 
L 270.155886 503.148588 
L 271.349086 501.356117 
L 272.542286 499.795003 
L 273.735486 498.437702 
L 274.928686 497.259665 
L 277.315086 495.35644 
L 279.701486 493.93832 
L 282.087886 492.889909 
L 284.474286 492.121201 
L 286.860686 491.562476 
L 290.440287 491.004347 
L 294.019887 490.670641 
L 299.985887 490.395308 
L 309.531487 490.264901 
L 338.168288 490.240008 
L 369.191489 490.24 
L 369.191489 490.24 
" clip-path="url(#p3148c96698)" style="fill: none; stroke: #8c564b; stroke-width: 1.5; stroke-linecap: square"/>
   </g>
   <g id="line2d_64">
    <path d="M 131.744681 731.84 
L 246.291885 731.742893 
L 247.485085 731.07643 
L 248.678285 725.961549 
L 249.871485 687.512056 
L 251.064685 534.567944 
L 252.257885 496.118451 
L 253.451085 491.00357 
L 254.644285 490.337107 
L 257.030685 490.241471 
L 359.645889 490.24 
L 369.191489 490.24 
L 369.191489 490.24 
" clip-path="url(#p3148c96698)" style="fill: none; stroke: #e377c2; stroke-width: 1.5; stroke-linecap: square"/>
   </g>
   <g id="patch_15">
    <path d="M 108 756 
L 108 466.08 
" style="fill: none; stroke: #000000; stroke-width: 0.8; stroke-linejoin: miter; stroke-linecap: square"/>
   </g>
   <g id="patch_16">
    <path d="M 392.93617 756 
L 392.93617 466.08 
" style="fill: none; stroke: #000000; stroke-width: 0.8; stroke-linejoin: miter; stroke-linecap: square"/>
   </g>
   <g id="patch_17">
    <path d="M 108 756 
L 392.93617 756 
" style="fill: none; stroke: #000000; stroke-width: 0.8; stroke-linejoin: miter; stroke-linecap: square"/>
   </g>
   <g id="patch_18">
    <path d="M 108 466.08 
L 392.93617 466.08 
" style="fill: none; stroke: #000000; stroke-width: 0.8; stroke-linejoin: miter; stroke-linecap: square"/>
   </g>
   <g id="text_28">
    <!-- expo_bias -->
    <g transform="translate(213.096991 460.08) scale(0.15 -0.15)">
     <defs>
      <path id="DejaVuSans-62" d="M 3116 1747 
Q 3116 2381 2855 2742 
Q 2594 3103 2138 3103 
Q 1681 3103 1420 2742 
Q 1159 2381 1159 1747 
Q 1159 1113 1420 752 
Q 1681 391 2138 391 
Q 2594 391 2855 752 
Q 3116 1113 3116 1747 
z
M 1159 2969 
Q 1341 3281 1617 3432 
Q 1894 3584 2278 3584 
Q 2916 3584 3314 3078 
Q 3713 2572 3713 1747 
Q 3713 922 3314 415 
Q 2916 -91 2278 -91 
Q 1894 -91 1617 61 
Q 1341 213 1159 525 
L 1159 0 
L 581 0 
L 581 4863 
L 1159 4863 
L 1159 2969 
z
" transform="scale(0.015625)"/>
      <path id="DejaVuSans-73" d="M 2834 3397 
L 2834 2853 
Q 2591 2978 2328 3040 
Q 2066 3103 1784 3103 
Q 1356 3103 1142 2972 
Q 928 2841 928 2578 
Q 928 2378 1081 2264 
Q 1234 2150 1697 2047 
L 1894 2003 
Q 2506 1872 2764 1633 
Q 3022 1394 3022 966 
Q 3022 478 2636 193 
Q 2250 -91 1575 -91 
Q 1294 -91 989 -36 
Q 684 19 347 128 
L 347 722 
Q 666 556 975 473 
Q 1284 391 1588 391 
Q 1994 391 2212 530 
Q 2431 669 2431 922 
Q 2431 1156 2273 1281 
Q 2116 1406 1581 1522 
L 1381 1569 
Q 847 1681 609 1914 
Q 372 2147 372 2553 
Q 372 3047 722 3315 
Q 1072 3584 1716 3584 
Q 2034 3584 2315 3537 
Q 2597 3491 2834 3397 
z
" transform="scale(0.015625)"/>
     </defs>
     <use xlink:href="#DejaVuSans-65"/>
     <use xlink:href="#DejaVuSans-78" x="59.773438"/>
     <use xlink:href="#DejaVuSans-70" x="118.953125"/>
     <use xlink:href="#DejaVuSans-6f" x="182.429688"/>
     <use xlink:href="#DejaVuSans-5f" x="243.611328"/>
     <use xlink:href="#DejaVuSans-62" x="293.611328"/>
     <use xlink:href="#DejaVuSans-69" x="357.087891"/>
     <use xlink:href="#DejaVuSans-61" x="384.871094"/>
     <use xlink:href="#DejaVuSans-73" x="446.150391"/>
    </g>
   </g>
  </g>
  <g id="axes_4">
   <g id="patch_19">
    <path d="M 492.66383 756 
L 777.6 756 
L 777.6 466.08 
L 492.66383 466.08 
z
" style="fill: #ffffff"/>
   </g>
   <g id="matplotlib.axis_7">
    <g id="xtick_10">
     <g id="line2d_65">
      <path d="M 516.408511 756 
L 516.408511 466.08 
" clip-path="url(#p7d32a8c895)" style="fill: none; stroke-dasharray: 0.8,1.32; stroke-dashoffset: 0; stroke: #b0b0b0; stroke-width: 0.8"/>
     </g>
     <g id="line2d_66">
      <g>
       <use xlink:href="#md36b369c47" x="516.408511" y="756" style="stroke: #000000; stroke-width: 0.8"/>
      </g>
     </g>
     <g id="text_29">
      <!-- 0.0 -->
      <g transform="translate(504.481167 774.397656) scale(0.15 -0.15)">
       <use xlink:href="#DejaVuSans-30"/>
       <use xlink:href="#DejaVuSans-2e" x="63.623047"/>
       <use xlink:href="#DejaVuSans-30" x="95.410156"/>
      </g>
     </g>
    </g>
    <g id="xtick_11">
     <g id="line2d_67">
      <path d="M 635.131915 756 
L 635.131915 466.08 
" clip-path="url(#p7d32a8c895)" style="fill: none; stroke-dasharray: 0.8,1.32; stroke-dashoffset: 0; stroke: #b0b0b0; stroke-width: 0.8"/>
     </g>
     <g id="line2d_68">
      <g>
       <use xlink:href="#md36b369c47" x="635.131915" y="756" style="stroke: #000000; stroke-width: 0.8"/>
      </g>
     </g>
     <g id="text_30">
      <!-- 0.5 -->
      <g transform="translate(623.204571 774.397656) scale(0.15 -0.15)">
       <use xlink:href="#DejaVuSans-30"/>
       <use xlink:href="#DejaVuSans-2e" x="63.623047"/>
       <use xlink:href="#DejaVuSans-35" x="95.410156"/>
      </g>
     </g>
    </g>
    <g id="xtick_12">
     <g id="line2d_69">
      <path d="M 753.855319 756 
L 753.855319 466.08 
" clip-path="url(#p7d32a8c895)" style="fill: none; stroke-dasharray: 0.8,1.32; stroke-dashoffset: 0; stroke: #b0b0b0; stroke-width: 0.8"/>
     </g>
     <g id="line2d_70">
      <g>
       <use xlink:href="#md36b369c47" x="753.855319" y="756" style="stroke: #000000; stroke-width: 0.8"/>
      </g>
     </g>
     <g id="text_31">
      <!-- 1.0 -->
      <g transform="translate(741.927975 774.397656) scale(0.15 -0.15)">
       <use xlink:href="#DejaVuSans-31"/>
       <use xlink:href="#DejaVuSans-2e" x="63.623047"/>
       <use xlink:href="#DejaVuSans-30" x="95.410156"/>
      </g>
     </g>
    </g>
   </g>
   <g id="matplotlib.axis_8">
    <g id="ytick_10">
     <g id="line2d_71">
      <path d="M 492.66383 731.84 
L 777.6 731.84 
" clip-path="url(#p7d32a8c895)" style="fill: none; stroke-dasharray: 0.8,1.32; stroke-dashoffset: 0; stroke: #b0b0b0; stroke-width: 0.8"/>
     </g>
     <g id="line2d_72">
      <g>
       <use xlink:href="#ma5bf11d7fd" x="492.66383" y="731.84" style="stroke: #000000; stroke-width: 0.8"/>
      </g>
     </g>
     <g id="text_32">
      <!-- 0.0 -->
      <g transform="translate(461.809142 737.538828) scale(0.15 -0.15)">
       <use xlink:href="#DejaVuSans-30"/>
       <use xlink:href="#DejaVuSans-2e" x="63.623047"/>
       <use xlink:href="#DejaVuSans-30" x="95.410156"/>
      </g>
     </g>
    </g>
    <g id="ytick_11">
     <g id="line2d_73">
      <path d="M 492.66383 611.04 
L 777.6 611.04 
" clip-path="url(#p7d32a8c895)" style="fill: none; stroke-dasharray: 0.8,1.32; stroke-dashoffset: 0; stroke: #b0b0b0; stroke-width: 0.8"/>
     </g>
     <g id="line2d_74">
      <g>
       <use xlink:href="#ma5bf11d7fd" x="492.66383" y="611.04" style="stroke: #000000; stroke-width: 0.8"/>
      </g>
     </g>
     <g id="text_33">
      <!-- 0.5 -->
      <g transform="translate(461.809142 616.738828) scale(0.15 -0.15)">
       <use xlink:href="#DejaVuSans-30"/>
       <use xlink:href="#DejaVuSans-2e" x="63.623047"/>
       <use xlink:href="#DejaVuSans-35" x="95.410156"/>
      </g>
     </g>
    </g>
    <g id="ytick_12">
     <g id="line2d_75">
      <path d="M 492.66383 490.24 
L 777.6 490.24 
" clip-path="url(#p7d32a8c895)" style="fill: none; stroke-dasharray: 0.8,1.32; stroke-dashoffset: 0; stroke: #b0b0b0; stroke-width: 0.8"/>
     </g>
     <g id="line2d_76">
      <g>
       <use xlink:href="#ma5bf11d7fd" x="492.66383" y="490.24" style="stroke: #000000; stroke-width: 0.8"/>
      </g>
     </g>
     <g id="text_34">
      <!-- 1.0 -->
      <g transform="translate(461.809142 495.938828) scale(0.15 -0.15)">
       <use xlink:href="#DejaVuSans-31"/>
       <use xlink:href="#DejaVuSans-2e" x="63.623047"/>
       <use xlink:href="#DejaVuSans-30" x="95.410156"/>
      </g>
     </g>
    </g>
   </g>
   <g id="line2d_77">
    <path d="M 516.408511 731.84 
L 517.601711 651.035966 
L 518.794911 634.809929 
L 519.988111 627.849229 
L 521.181311 623.980437 
L 522.374511 621.517834 
L 523.567711 619.81266 
L 524.760911 618.562046 
L 525.954111 617.605607 
L 527.147311 616.85047 
L 529.533711 615.734094 
L 531.920111 614.948435 
L 535.499711 614.127008 
L 539.079311 613.558296 
L 543.852112 613.02586 
L 551.011312 612.497913 
L 560.556912 612.056767 
L 573.682113 611.687805 
L 593.966513 611.361339 
L 626.182915 611.089466 
L 681.070117 610.658083 
L 701.354517 610.279131 
L 714.479718 609.828995 
L 722.832118 609.347994 
L 728.798118 608.812683 
L 733.570918 608.164224 
L 737.150519 607.443134 
L 739.536919 606.770156 
L 741.923319 605.840866 
L 743.116519 605.22953 
L 744.309719 604.474393 
L 745.502919 603.517954 
L 746.696119 602.26734 
L 747.889319 600.562166 
L 749.082519 598.099563 
L 750.275719 594.230771 
L 751.468919 587.270071 
L 752.662119 571.044034 
L 753.855319 490.24 
L 753.855319 490.24 
" clip-path="url(#p7d32a8c895)" style="fill: none; stroke: #1f77b4; stroke-width: 1.5; stroke-linecap: square"/>
   </g>
   <g id="line2d_78">
    <path d="M 516.408511 731.84 
L 517.601711 718.397594 
L 518.794911 707.449277 
L 519.988111 698.35985 
L 521.181311 690.692934 
L 522.374511 684.138826 
L 523.567711 678.471642 
L 524.760911 673.522759 
L 525.954111 669.163751 
L 527.147311 665.295087 
L 528.340511 661.838434 
L 530.726911 655.923227 
L 533.113311 651.046714 
L 535.499711 646.957389 
L 537.886111 643.47888 
L 540.272511 640.483843 
L 542.658912 637.878032 
L 545.045312 635.590202 
L 547.431712 633.565497 
L 549.818112 631.760992 
L 553.397712 629.394455 
L 556.977312 627.359835 
L 560.556912 625.591879 
L 564.136512 624.041387 
L 568.909313 622.248247 
L 573.682113 620.707754 
L 579.648113 619.062661 
L 585.614113 617.663915 
L 592.773313 616.239111 
L 599.932514 615.031338 
L 608.284914 613.835817 
L 617.830514 612.688048 
L 628.569315 611.610382 
L 654.819716 609.123769 
L 664.365316 607.922991 
L 672.717716 606.667045 
L 679.876916 605.392795 
L 687.036117 603.882497 
L 693.002117 602.392325 
L 697.774917 601.007835 
L 702.547717 599.40944 
L 707.320517 597.543416 
L 710.900118 595.925123 
L 714.479718 594.074424 
L 718.059318 591.937383 
L 721.638918 589.441973 
L 724.025318 587.53212 
L 726.411718 585.381879 
L 728.798118 582.942815 
L 731.184518 580.152546 
L 733.570918 576.929333 
L 735.957319 573.163933 
L 738.343719 568.706982 
L 740.730119 563.348699 
L 741.923319 560.241566 
L 743.116519 556.784913 
L 744.309719 552.916249 
L 745.502919 548.557241 
L 746.696119 543.608358 
L 747.889319 537.941174 
L 749.082519 531.387066 
L 750.275719 523.72015 
L 751.468919 514.630723 
L 752.662119 503.682406 
L 753.855319 490.24 
L 753.855319 490.24 
" clip-path="url(#p7d32a8c895)" style="fill: none; stroke: #ff7f0e; stroke-width: 1.5; stroke-linecap: square"/>
   </g>
   <g id="line2d_79">
    <path d="M 516.408511 731.84 
L 518.794911 724.837101 
L 521.181311 718.355349 
L 523.567711 712.338655 
L 525.954111 706.738701 
L 529.533711 699.030123 
L 533.113311 692.047059 
L 536.692911 685.691685 
L 540.272511 679.883011 
L 543.852112 674.553402 
L 547.431712 669.645941 
L 551.011312 665.112381 
L 554.590912 660.91156 
L 558.170512 657.008142 
L 561.750112 653.371624 
L 566.522912 648.892861 
L 571.295713 644.788303 
L 576.068513 641.012932 
L 580.841313 637.528675 
L 585.614113 634.303109 
L 590.386913 631.308456 
L 596.352914 627.853704 
L 602.318914 624.68271 
L 608.284914 621.761893 
L 614.250914 619.06277 
L 621.410114 616.082468 
L 628.569315 613.350957 
L 636.921715 610.426802 
L 644.080915 607.844233 
L 651.240115 605.03337 
L 658.399316 601.962543 
L 664.365316 599.177876 
L 670.331316 596.160668 
L 676.297316 592.880523 
L 682.263317 589.301503 
L 687.036117 586.19461 
L 691.808917 582.84344 
L 696.581717 579.218005 
L 701.354517 575.2832 
L 706.127317 570.99766 
L 709.706918 567.52415 
L 713.286518 563.801791 
L 716.866118 559.802848 
L 720.445718 555.495305 
L 724.025318 550.842007 
L 727.604918 545.799582 
L 731.184518 540.317091 
L 734.764118 534.334297 
L 738.343719 527.779442 
L 741.923319 520.56636 
L 744.309719 515.341299 
L 746.696119 509.741345 
L 749.082519 503.724651 
L 751.468919 497.242899 
L 753.855319 490.24 
L 753.855319 490.24 
" clip-path="url(#p7d32a8c895)" style="fill: none; stroke: #2ca02c; stroke-width: 1.5; stroke-linecap: square"/>
   </g>
   <g id="line2d_80">
    <path d="M 516.408511 731.84 
L 753.855319 490.24 
L 753.855319 490.24 
" clip-path="url(#p7d32a8c895)" style="fill: none; stroke: #d62728; stroke-width: 1.5; stroke-linecap: square"/>
   </g>
   <g id="line2d_81">
    <path d="M 516.408511 731.84 
L 523.567711 729.310157 
L 530.726911 726.559126 
L 537.886111 723.556571 
L 543.852112 720.836436 
L 549.818112 717.891959 
L 555.784112 714.694194 
L 561.750112 711.208989 
L 566.522912 708.186853 
L 571.295713 704.930557 
L 576.068513 701.411788 
L 580.841313 697.59748 
L 585.614113 693.448767 
L 590.386913 688.919656 
L 593.966513 685.240593 
L 597.546114 681.289846 
L 601.125714 677.036166 
L 604.705314 672.443322 
L 608.284914 667.469066 
L 611.864514 662.063827 
L 615.444114 656.169057 
L 619.023714 649.715099 
L 622.603314 642.618423 
L 624.989715 637.481202 
L 627.376115 631.978667 
L 629.762515 626.070415 
L 632.148915 619.709856 
L 634.535315 612.842985 
L 638.114915 602.370144 
L 640.501315 596.009585 
L 642.887715 590.101333 
L 645.274115 584.598798 
L 648.853715 577.018776 
L 652.433316 570.146615 
L 656.012916 563.887584 
L 659.592516 558.163132 
L 663.172116 552.907577 
L 666.751716 548.065574 
L 670.331316 543.590158 
L 673.910916 539.441216 
L 677.490516 535.584282 
L 681.070117 531.989575 
L 685.842917 527.560325 
L 690.615717 523.499221 
L 695.388517 519.762195 
L 700.161317 516.311942 
L 704.934117 513.116674 
L 709.706918 510.149131 
L 715.672918 506.724435 
L 721.638918 503.579877 
L 727.604918 500.682436 
L 733.570918 498.004083 
L 740.730119 495.045787 
L 747.889319 492.333588 
L 753.855319 490.24 
L 753.855319 490.24 
" clip-path="url(#p7d32a8c895)" style="fill: none; stroke: #9467bd; stroke-width: 1.5; stroke-linecap: square"/>
   </g>
   <g id="line2d_82">
    <path d="M 516.408511 731.84 
L 528.340511 730.755457 
L 539.079311 729.571642 
L 548.624912 728.299273 
L 556.977312 726.961125 
L 564.136512 725.595761 
L 570.102513 724.260172 
L 576.068513 722.695413 
L 580.841313 721.236044 
L 585.614113 719.544475 
L 589.193713 718.087963 
L 592.773313 716.434088 
L 596.352914 714.539822 
L 599.932514 712.348644 
L 602.318914 710.686534 
L 604.705314 708.830476 
L 607.091714 706.744419 
L 609.478114 704.382788 
L 611.864514 701.687114 
L 614.250914 698.58113 
L 616.637314 694.96344 
L 619.023714 690.696238 
L 621.410114 685.587353 
L 622.603314 682.635423 
L 623.796514 679.360515 
L 624.989715 675.706553 
L 626.182915 671.603686 
L 627.376115 666.963773 
L 628.569315 661.673986 
L 629.762515 655.587508 
L 630.955715 648.509701 
L 632.148915 640.176897 
L 633.342115 630.222833 
L 634.535315 618.12336 
L 635.728515 603.95664 
L 636.921715 591.857167 
L 638.114915 581.903103 
L 639.308115 573.570299 
L 640.501315 566.492492 
L 641.694515 560.406014 
L 642.887715 555.116227 
L 644.080915 550.476314 
L 645.274115 546.373447 
L 646.467315 542.719485 
L 648.853715 536.492647 
L 651.240115 531.383762 
L 653.626516 527.11656 
L 656.012916 523.49887 
L 658.399316 520.392886 
L 660.785716 517.697212 
L 663.172116 515.335581 
L 665.558516 513.249524 
L 667.944916 511.393466 
L 671.524516 508.963774 
L 675.104116 506.878887 
L 678.683716 505.07027 
L 682.263317 503.486421 
L 687.036117 501.657384 
L 691.808917 500.088341 
L 696.581717 498.727534 
L 702.547717 497.261041 
L 709.706918 495.772824 
L 716.866118 494.515699 
L 725.218518 493.275282 
L 734.764118 492.088096 
L 745.502919 490.976692 
L 753.855319 490.24 
L 753.855319 490.24 
" clip-path="url(#p7d32a8c895)" style="fill: none; stroke: #8c564b; stroke-width: 1.5; stroke-linecap: square"/>
   </g>
   <g id="line2d_83">
    <path d="M 516.408511 731.84 
L 556.977312 731.525718 
L 579.648113 731.152051 
L 593.966513 730.707037 
L 603.512114 730.190622 
L 609.478114 729.677163 
L 614.250914 729.061041 
L 617.830514 728.383343 
L 620.216914 727.757809 
L 622.603314 726.904861 
L 623.796514 726.350477 
L 624.989715 725.672931 
L 626.182915 724.826052 
L 627.376115 723.737295 
L 628.569315 722.285772 
L 629.762515 720.253932 
L 630.955715 717.206814 
L 632.148915 712.129992 
L 633.342115 701.982749 
L 634.535315 671.592141 
L 635.728515 550.487859 
L 636.921715 520.097251 
L 638.114915 509.950008 
L 639.308115 504.873186 
L 640.501315 501.826068 
L 641.694515 499.794228 
L 642.887715 498.342705 
L 644.080915 497.253948 
L 645.274115 496.407069 
L 647.660515 495.175139 
L 650.046915 494.322191 
L 652.433316 493.696657 
L 656.012916 493.018959 
L 660.785716 492.402837 
L 666.751716 491.889378 
L 675.104116 491.424226 
L 687.036117 491.016448 
L 704.934117 490.66395 
L 732.377718 490.37392 
L 753.855319 490.24 
L 753.855319 490.24 
" clip-path="url(#p7d32a8c895)" style="fill: none; stroke: #e377c2; stroke-width: 1.5; stroke-linecap: square"/>
   </g>
   <g id="patch_20">
    <path d="M 492.66383 756 
L 492.66383 466.08 
" style="fill: none; stroke: #000000; stroke-width: 0.8; stroke-linejoin: miter; stroke-linecap: square"/>
   </g>
   <g id="patch_21">
    <path d="M 777.6 756 
L 777.6 466.08 
" style="fill: none; stroke: #000000; stroke-width: 0.8; stroke-linejoin: miter; stroke-linecap: square"/>
   </g>
   <g id="patch_22">
    <path d="M 492.66383 756 
L 777.6 756 
" style="fill: none; stroke: #000000; stroke-width: 0.8; stroke-linejoin: miter; stroke-linecap: square"/>
   </g>
   <g id="patch_23">
    <path d="M 492.66383 466.08 
L 777.6 466.08 
" style="fill: none; stroke: #000000; stroke-width: 0.8; stroke-linejoin: miter; stroke-linecap: square"/>
   </g>
   <g id="text_35">
    <!-- ratio_bias -->
    <g transform="translate(598.741681 460.08) scale(0.15 -0.15)">
     <use xlink:href="#DejaVuSans-72"/>
     <use xlink:href="#DejaVuSans-61" x="41.113281"/>
     <use xlink:href="#DejaVuSans-74" x="102.392578"/>
     <use xlink:href="#DejaVuSans-69" x="141.601562"/>
     <use xlink:href="#DejaVuSans-6f" x="169.384766"/>
     <use xlink:href="#DejaVuSans-5f" x="230.566406"/>
     <use xlink:href="#DejaVuSans-62" x="280.566406"/>
     <use xlink:href="#DejaVuSans-69" x="344.042969"/>
     <use xlink:href="#DejaVuSans-61" x="371.826172"/>
     <use xlink:href="#DejaVuSans-73" x="433.105469"/>
    </g>
   </g>
  </g>
 </g>
 <defs>
  <clipPath id="pa26acf5109">
   <rect x="108" y="103.68" width="284.93617" height="289.92"/>
  </clipPath>
  <clipPath id="p4eebc2f9ac">
   <rect x="492.66383" y="103.68" width="284.93617" height="289.92"/>
  </clipPath>
  <clipPath id="p3148c96698">
   <rect x="108" y="466.08" width="284.93617" height="289.92"/>
  </clipPath>
  <clipPath id="p7d32a8c895">
   <rect x="492.66383" y="466.08" width="284.93617" height="289.92"/>
  </clipPath>
 </defs>
</svg>
